<svg width="40" height="40" viewBox="0 0 40 40" fill="none" xmlns="http://www.w3.org/2000/svg">
<path d="M20 26.6666C23.6818 26.6666 26.6667 23.6818 26.6667 20C26.6667 16.3181 23.6818 13.3333 20 13.3333V26.6666Z" fill="white"/>
<path fill-rule="evenodd" clip-rule="evenodd" d="M20.0002 3.33331C10.7954 3.33331 3.3335 10.7952 3.3335 20C3.3335 29.2046 10.7954 36.6666 20.0002 36.6666C29.2048 36.6666 36.6668 29.2046 36.6668 20C36.6668 10.7952 29.2048 3.33331 20.0002 3.33331ZM20.0002 6.66665V13.3333C16.3183 13.3333 13.3335 16.3181 13.3335 20C13.3335 23.6818 16.3183 26.6666 20.0002 26.6666V33.3333C27.364 33.3333 33.3335 27.3638 33.3335 20C33.3335 12.6362 27.364 6.66665 20.0002 6.66665Z" fill="white"/>
</svg>
