<svg width="40" height="40" viewBox="0 0 40 40" fill="none" xmlns="http://www.w3.org/2000/svg">
<path d="M20 26.6666C23.6818 26.6666 26.6667 23.6818 26.6667 20C26.6667 16.3181 23.6818 13.3333 20 13.3333V26.6666Z" fill="#333333"/>
<path fill-rule="evenodd" clip-rule="evenodd" d="M19.9999 3.33331C10.7952 3.33331 3.33325 10.7952 3.33325 20C3.33325 29.2046 10.7952 36.6666 19.9999 36.6666C29.2046 36.6666 36.6666 29.2046 36.6666 20C36.6666 10.7952 29.2046 3.33331 19.9999 3.33331ZM19.9999 6.66665V13.3333C16.318 13.3333 13.3333 16.3181 13.3333 20C13.3333 23.6818 16.318 26.6666 19.9999 26.6666V33.3333C27.3638 33.3333 33.3333 27.3638 33.3333 20C33.3333 12.6362 27.3638 6.66665 19.9999 6.66665Z" fill="#333333"/>
</svg>
